<mxfile host="65bd71144e" pages="2">
    <diagram id="fJJeGL6-6p_AqGsiRXhi" name="AWS Components">
        <mxGraphModel dx="2504" dy="2134" grid="1" gridSize="10" guides="1" tooltips="1" connect="1" arrows="1" fold="1" page="1" pageScale="1" pageWidth="850" pageHeight="1100" math="0" shadow="0">
            <root>
                <mxCell id="0"/>
                <mxCell id="1" parent="0"/>
                <mxCell id="JGwcwEdDxVMd2s7VXvuE-41" value="" style="rounded=0;whiteSpace=wrap;html=1;strokeColor=#000000;" parent="1" vertex="1">
                    <mxGeometry x="-360" y="-120" width="1400" height="1240" as="geometry"/>
                </mxCell>
                <mxCell id="47" value="" style="rounded=1;whiteSpace=wrap;html=1;strokeColor=#000000;dashed=1;" vertex="1" parent="1">
                    <mxGeometry x="-280" y="620" width="640" height="140" as="geometry"/>
                </mxCell>
                <mxCell id="2" value="Private VPC" style="points=[[0,0],[0.25,0],[0.5,0],[0.75,0],[1,0],[1,0.25],[1,0.5],[1,0.75],[1,1],[0.75,1],[0.5,1],[0.25,1],[0,1],[0,0.75],[0,0.5],[0,0.25]];outlineConnect=0;gradientColor=none;html=1;whiteSpace=wrap;fontSize=12;fontStyle=0;container=1;pointerEvents=0;collapsible=0;recursiveResize=0;shape=mxgraph.aws4.group;grIcon=mxgraph.aws4.group_vpc;strokeColor=#248814;fillColor=none;verticalAlign=top;align=left;spacingLeft=30;fontColor=#AAB7B8;dashed=0;" parent="1" vertex="1">
                    <mxGeometry x="240" y="200" width="440" height="400" as="geometry"/>
                </mxCell>
                <mxCell id="4" value="Routable Subnet" style="points=[[0,0],[0.25,0],[0.5,0],[0.75,0],[1,0],[1,0.25],[1,0.5],[1,0.75],[1,1],[0.75,1],[0.5,1],[0.25,1],[0,1],[0,0.75],[0,0.5],[0,0.25]];outlineConnect=0;gradientColor=none;html=1;whiteSpace=wrap;fontSize=12;fontStyle=0;container=1;pointerEvents=0;collapsible=0;recursiveResize=0;shape=mxgraph.aws4.group;grIcon=mxgraph.aws4.group_security_group;grStroke=0;strokeColor=#147EBA;fillColor=#E6F2F8;verticalAlign=top;align=left;spacingLeft=30;fontColor=#147EBA;dashed=0;" parent="2" vertex="1">
                    <mxGeometry x="40" y="40" width="160" height="320" as="geometry"/>
                </mxCell>
                <mxCell id="25" value="&lt;div&gt;Private&lt;/div&gt;&lt;div&gt;Ingress ALB&lt;br&gt;&lt;/div&gt;" style="sketch=0;outlineConnect=0;fontColor=#232F3E;gradientColor=none;fillColor=#4D27AA;strokeColor=none;dashed=0;verticalLabelPosition=bottom;verticalAlign=top;align=center;html=1;fontSize=12;fontStyle=0;aspect=fixed;pointerEvents=1;shape=mxgraph.aws4.application_load_balancer;" parent="4" vertex="1">
                    <mxGeometry x="41" y="60" width="78" height="78" as="geometry"/>
                </mxCell>
                <mxCell id="5" value="&lt;div&gt;EKS Subnet&lt;/div&gt;" style="points=[[0,0],[0.25,0],[0.5,0],[0.75,0],[1,0],[1,0.25],[1,0.5],[1,0.75],[1,1],[0.75,1],[0.5,1],[0.25,1],[0,1],[0,0.75],[0,0.5],[0,0.25]];outlineConnect=0;gradientColor=none;html=1;whiteSpace=wrap;fontSize=12;fontStyle=0;container=1;pointerEvents=0;collapsible=0;recursiveResize=0;shape=mxgraph.aws4.group;grIcon=mxgraph.aws4.group_security_group;grStroke=0;strokeColor=#147EBA;fillColor=#E6F2F8;verticalAlign=top;align=left;spacingLeft=30;fontColor=#147EBA;dashed=0;" parent="2" vertex="1">
                    <mxGeometry x="240" y="40" width="160" height="320" as="geometry"/>
                </mxCell>
                <mxCell id="10" value="" style="sketch=0;points=[[0,0,0],[0.25,0,0],[0.5,0,0],[0.75,0,0],[1,0,0],[0,1,0],[0.25,1,0],[0.5,1,0],[0.75,1,0],[1,1,0],[0,0.25,0],[0,0.5,0],[0,0.75,0],[1,0.25,0],[1,0.5,0],[1,0.75,0]];outlineConnect=0;fontColor=#232F3E;gradientColor=#F78E04;gradientDirection=north;fillColor=#D05C17;strokeColor=#ffffff;dashed=0;verticalLabelPosition=bottom;verticalAlign=top;align=center;html=1;fontSize=12;fontStyle=0;aspect=fixed;shape=mxgraph.aws4.resourceIcon;resIcon=mxgraph.aws4.eks;" parent="5" vertex="1">
                    <mxGeometry x="41" y="60" width="78" height="78" as="geometry"/>
                </mxCell>
                <mxCell id="27" style="edgeStyle=none;html=1;entryX=0;entryY=0.5;entryDx=0;entryDy=0;entryPerimeter=0;" parent="2" source="25" target="10" edge="1">
                    <mxGeometry relative="1" as="geometry"/>
                </mxCell>
                <mxCell id="6" value="Public VPC" style="points=[[0,0],[0.25,0],[0.5,0],[0.75,0],[1,0],[1,0.25],[1,0.5],[1,0.75],[1,1],[0.75,1],[0.5,1],[0.25,1],[0,1],[0,0.75],[0,0.5],[0,0.25]];outlineConnect=0;gradientColor=none;html=1;whiteSpace=wrap;fontSize=12;fontStyle=0;container=1;pointerEvents=0;collapsible=0;recursiveResize=0;shape=mxgraph.aws4.group;grIcon=mxgraph.aws4.group_vpc;strokeColor=#248814;fillColor=none;verticalAlign=top;align=left;spacingLeft=30;fontColor=#AAB7B8;dashed=0;" parent="1" vertex="1">
                    <mxGeometry x="-40" y="200" width="240" height="400" as="geometry"/>
                </mxCell>
                <mxCell id="9" value="Public subnet" style="points=[[0,0],[0.25,0],[0.5,0],[0.75,0],[1,0],[1,0.25],[1,0.5],[1,0.75],[1,1],[0.75,1],[0.5,1],[0.25,1],[0,1],[0,0.75],[0,0.5],[0,0.25]];outlineConnect=0;gradientColor=none;html=1;whiteSpace=wrap;fontSize=12;fontStyle=0;container=1;pointerEvents=0;collapsible=0;recursiveResize=0;shape=mxgraph.aws4.group;grIcon=mxgraph.aws4.group_security_group;grStroke=0;strokeColor=#248814;fillColor=#E9F3E6;verticalAlign=top;align=left;spacingLeft=30;fontColor=#248814;dashed=0;" parent="6" vertex="1">
                    <mxGeometry x="41" y="40" width="160" height="320" as="geometry"/>
                </mxCell>
                <mxCell id="17" value="&lt;div&gt;Proxy&lt;/div&gt;&lt;div&gt;(and Jump Host)&lt;br&gt;&lt;/div&gt;" style="sketch=0;points=[[0,0,0],[0.25,0,0],[0.5,0,0],[0.75,0,0],[1,0,0],[0,1,0],[0.25,1,0],[0.5,1,0],[0.75,1,0],[1,1,0],[0,0.25,0],[0,0.5,0],[0,0.75,0],[1,0.25,0],[1,0.5,0],[1,0.75,0]];outlineConnect=0;fontColor=#232F3E;gradientColor=#F78E04;gradientDirection=north;fillColor=#D05C17;strokeColor=#ffffff;dashed=0;verticalLabelPosition=bottom;verticalAlign=top;align=center;html=1;fontSize=12;fontStyle=0;aspect=fixed;shape=mxgraph.aws4.resourceIcon;resIcon=mxgraph.aws4.ec2;" parent="9" vertex="1">
                    <mxGeometry x="40" y="200" width="78" height="78" as="geometry"/>
                </mxCell>
                <mxCell id="24" value="&lt;div&gt;Public&lt;/div&gt;&lt;div&gt;Ingress ALB&lt;/div&gt;" style="sketch=0;outlineConnect=0;fontColor=#232F3E;gradientColor=none;fillColor=#4D27AA;strokeColor=none;dashed=0;verticalLabelPosition=bottom;verticalAlign=top;align=center;html=1;fontSize=12;fontStyle=0;aspect=fixed;pointerEvents=1;shape=mxgraph.aws4.application_load_balancer;" parent="9" vertex="1">
                    <mxGeometry x="41" y="60" width="78" height="78" as="geometry"/>
                </mxCell>
                <mxCell id="14" style="edgeStyle=none;html=1;" parent="1" source="13" target="24" edge="1">
                    <mxGeometry relative="1" as="geometry">
                        <mxPoint x="42" y="338.7054380664654" as="targetPoint"/>
                    </mxGeometry>
                </mxCell>
                <mxCell id="13" value="devices" style="sketch=0;outlineConnect=0;gradientColor=none;fontColor=#545B64;strokeColor=none;fillColor=#879196;dashed=0;verticalLabelPosition=bottom;verticalAlign=top;align=center;html=1;fontSize=12;fontStyle=0;aspect=fixed;shape=mxgraph.aws4.illustration_devices;pointerEvents=1" parent="1" vertex="1">
                    <mxGeometry x="-300" y="305" width="100" height="73" as="geometry"/>
                </mxCell>
                <mxCell id="18" value="WWW" style="aspect=fixed;perimeter=ellipsePerimeter;html=1;align=center;shadow=0;dashed=0;spacingTop=3;image;image=img/lib/active_directory/internet_globe.svg;" parent="1" vertex="1">
                    <mxGeometry x="-250" y="454" width="50" height="50" as="geometry"/>
                </mxCell>
                <mxCell id="19" style="edgeStyle=none;html=1;entryX=1;entryY=0.5;entryDx=0;entryDy=0;" parent="1" source="17" target="18" edge="1">
                    <mxGeometry relative="1" as="geometry"/>
                </mxCell>
                <mxCell id="20" style="edgeStyle=none;html=1;entryX=1;entryY=0.5;entryDx=0;entryDy=0;entryPerimeter=0;" parent="1" source="10" target="17" edge="1">
                    <mxGeometry relative="1" as="geometry">
                        <Array as="points">
                            <mxPoint x="560" y="479"/>
                        </Array>
                    </mxGeometry>
                </mxCell>
                <mxCell id="21" value="Public&lt;br&gt;&lt;div&gt;Ingress NLB&lt;/div&gt;&lt;div&gt;DNS Name&lt;br&gt;&lt;/div&gt;" style="sketch=0;points=[[0,0,0],[0.25,0,0],[0.5,0,0],[0.75,0,0],[1,0,0],[0,1,0],[0.25,1,0],[0.5,1,0],[0.75,1,0],[1,1,0],[0,0.25,0],[0,0.5,0],[0,0.75,0],[1,0.25,0],[1,0.5,0],[1,0.75,0]];outlineConnect=0;fontColor=#232F3E;gradientColor=#945DF2;gradientDirection=north;fillColor=#5A30B5;strokeColor=#ffffff;dashed=0;verticalLabelPosition=bottom;verticalAlign=top;align=center;html=1;fontSize=12;fontStyle=0;aspect=fixed;shape=mxgraph.aws4.resourceIcon;resIcon=mxgraph.aws4.route_53;" parent="1" vertex="1">
                    <mxGeometry x="-40" y="40" width="78" height="78" as="geometry"/>
                </mxCell>
                <mxCell id="22" value="&lt;div&gt;Ingress NLB&lt;br&gt;&lt;/div&gt;&lt;div&gt;Certificate&lt;/div&gt;" style="sketch=0;points=[[0,0,0],[0.25,0,0],[0.5,0,0],[0.75,0,0],[1,0,0],[0,1,0],[0.25,1,0],[0.5,1,0],[0.75,1,0],[1,1,0],[0,0.25,0],[0,0.5,0],[0,0.75,0],[1,0.25,0],[1,0.5,0],[1,0.75,0]];outlineConnect=0;fontColor=#232F3E;gradientColor=#F54749;gradientDirection=north;fillColor=#C7131F;strokeColor=#ffffff;dashed=0;verticalLabelPosition=bottom;verticalAlign=top;align=center;html=1;fontSize=12;fontStyle=0;aspect=fixed;shape=mxgraph.aws4.resourceIcon;resIcon=mxgraph.aws4.certificate_manager_3;" parent="1" vertex="1">
                    <mxGeometry x="80" y="40" width="78" height="78" as="geometry"/>
                </mxCell>
                <mxCell id="23" value="&lt;div&gt;Proxy&lt;/div&gt;&lt;div&gt;DNS Name&lt;br&gt;&lt;/div&gt;" style="sketch=0;points=[[0,0,0],[0.25,0,0],[0.5,0,0],[0.75,0,0],[1,0,0],[0,1,0],[0.25,1,0],[0.5,1,0],[0.75,1,0],[1,1,0],[0,0.25,0],[0,0.5,0],[0,0.75,0],[1,0.25,0],[1,0.5,0],[1,0.75,0]];outlineConnect=0;fontColor=#232F3E;gradientColor=#945DF2;gradientDirection=north;fillColor=#5A30B5;strokeColor=#ffffff;dashed=0;verticalLabelPosition=bottom;verticalAlign=top;align=center;html=1;fontSize=12;fontStyle=0;aspect=fixed;shape=mxgraph.aws4.resourceIcon;resIcon=mxgraph.aws4.route_53;" parent="1" vertex="1">
                    <mxGeometry x="520" y="40" width="78" height="78" as="geometry"/>
                </mxCell>
                <mxCell id="26" style="edgeStyle=none;html=1;" parent="1" source="24" target="25" edge="1">
                    <mxGeometry relative="1" as="geometry"/>
                </mxCell>
                <mxCell id="28" value="&lt;div&gt;Private Ingress&lt;/div&gt;&lt;div&gt;DNS Name&lt;br&gt;&lt;/div&gt;" style="sketch=0;points=[[0,0,0],[0.25,0,0],[0.5,0,0],[0.75,0,0],[1,0,0],[0,1,0],[0.25,1,0],[0.5,1,0],[0.75,1,0],[1,1,0],[0,0.25,0],[0,0.5,0],[0,0.75,0],[1,0.25,0],[1,0.5,0],[1,0.75,0]];outlineConnect=0;fontColor=#232F3E;gradientColor=#945DF2;gradientDirection=north;fillColor=#5A30B5;strokeColor=#ffffff;dashed=0;verticalLabelPosition=bottom;verticalAlign=top;align=center;html=1;fontSize=12;fontStyle=0;aspect=fixed;shape=mxgraph.aws4.resourceIcon;resIcon=mxgraph.aws4.route_53;" parent="1" vertex="1">
                    <mxGeometry x="320" y="40" width="78" height="78" as="geometry"/>
                </mxCell>
                <mxCell id="29" value="&lt;div&gt;Various Supporting&lt;/div&gt;&lt;div&gt;Functions&lt;br&gt;&lt;/div&gt;" style="sketch=0;points=[[0,0,0],[0.25,0,0],[0.5,0,0],[0.75,0,0],[1,0,0],[0,1,0],[0.25,1,0],[0.5,1,0],[0.75,1,0],[1,1,0],[0,0.25,0],[0,0.5,0],[0,0.75,0],[1,0.25,0],[1,0.5,0],[1,0.75,0]];outlineConnect=0;fontColor=#232F3E;gradientColor=#F78E04;gradientDirection=north;fillColor=#D05C17;strokeColor=#ffffff;dashed=0;verticalLabelPosition=bottom;verticalAlign=top;align=center;html=1;fontSize=12;fontStyle=0;aspect=fixed;shape=mxgraph.aws4.resourceIcon;resIcon=mxgraph.aws4.lambda;" parent="1" vertex="1">
                    <mxGeometry x="41" y="800" width="78" height="78" as="geometry"/>
                </mxCell>
                <mxCell id="43" style="edgeStyle=none;html=1;entryX=1;entryY=0.75;entryDx=0;entryDy=0;entryPerimeter=0;" edge="1" parent="1" source="30" target="29">
                    <mxGeometry relative="1" as="geometry">
                        <Array as="points">
                            <mxPoint x="440" y="1000"/>
                            <mxPoint x="200" y="859"/>
                        </Array>
                    </mxGeometry>
                </mxCell>
                <mxCell id="30" value="&lt;div&gt;Event Bridge&lt;/div&gt;&lt;div&gt;(Used for triggering &lt;br&gt;&lt;/div&gt;&lt;div&gt;Lambda Functions)&lt;br&gt;&lt;/div&gt;" style="sketch=0;points=[[0,0,0],[0.25,0,0],[0.5,0,0],[0.75,0,0],[1,0,0],[0,1,0],[0.25,1,0],[0.5,1,0],[0.75,1,0],[1,1,0],[0,0.25,0],[0,0.5,0],[0,0.75,0],[1,0.25,0],[1,0.5,0],[1,0.75,0]];outlineConnect=0;fontColor=#232F3E;gradientColor=#FF4F8B;gradientDirection=north;fillColor=#BC1356;strokeColor=#ffffff;dashed=0;verticalLabelPosition=bottom;verticalAlign=top;align=center;html=1;fontSize=12;fontStyle=0;aspect=fixed;shape=mxgraph.aws4.resourceIcon;resIcon=mxgraph.aws4.eventbridge;" parent="1" vertex="1">
                    <mxGeometry x="520" y="960" width="78" height="78" as="geometry"/>
                </mxCell>
                <mxCell id="54" value="&lt;div&gt;Alarm&lt;/div&gt;&lt;div&gt;Triggers&lt;br&gt;&lt;/div&gt;" style="edgeStyle=none;html=1;entryX=0.5;entryY=0;entryDx=0;entryDy=0;entryPerimeter=0;exitX=1;exitY=0.5;exitDx=0;exitDy=0;exitPerimeter=0;" edge="1" parent="1" source="31" target="49">
                    <mxGeometry relative="1" as="geometry">
                        <Array as="points">
                            <mxPoint x="719" y="679"/>
                        </Array>
                    </mxGeometry>
                </mxCell>
                <mxCell id="31" value="&lt;div&gt;CloudWatch&lt;/div&gt;&lt;div&gt;(Logs etc)&lt;br&gt;&lt;/div&gt;" style="sketch=0;points=[[0,0,0],[0.25,0,0],[0.5,0,0],[0.75,0,0],[1,0,0],[0,1,0],[0.25,1,0],[0.5,1,0],[0.75,1,0],[1,1,0],[0,0.25,0],[0,0.5,0],[0,0.75,0],[1,0.25,0],[1,0.5,0],[1,0.75,0]];points=[[0,0,0],[0.25,0,0],[0.5,0,0],[0.75,0,0],[1,0,0],[0,1,0],[0.25,1,0],[0.5,1,0],[0.75,1,0],[1,1,0],[0,0.25,0],[0,0.5,0],[0,0.75,0],[1,0.25,0],[1,0.5,0],[1,0.75,0]];outlineConnect=0;fontColor=#232F3E;gradientColor=#F34482;gradientDirection=north;fillColor=#BC1356;strokeColor=#ffffff;dashed=0;verticalLabelPosition=bottom;verticalAlign=top;align=center;html=1;fontSize=12;fontStyle=0;aspect=fixed;shape=mxgraph.aws4.resourceIcon;resIcon=mxgraph.aws4.cloudwatch_2;" parent="1" vertex="1">
                    <mxGeometry x="520" y="640" width="78" height="78" as="geometry"/>
                </mxCell>
                <mxCell id="32" value="&lt;div&gt;Container&lt;/div&gt;&lt;div&gt;Registry&lt;br&gt;&lt;/div&gt;" style="sketch=0;points=[[0,0,0],[0.25,0,0],[0.5,0,0],[0.75,0,0],[1,0,0],[0,1,0],[0.25,1,0],[0.5,1,0],[0.75,1,0],[1,1,0],[0,0.25,0],[0,0.5,0],[0,0.75,0],[1,0.25,0],[1,0.5,0],[1,0.75,0]];outlineConnect=0;fontColor=#232F3E;gradientColor=#F78E04;gradientDirection=north;fillColor=#D05C17;strokeColor=#ffffff;dashed=0;verticalLabelPosition=bottom;verticalAlign=top;align=center;html=1;fontSize=12;fontStyle=0;aspect=fixed;shape=mxgraph.aws4.resourceIcon;resIcon=mxgraph.aws4.ecr;" parent="1" vertex="1">
                    <mxGeometry x="880" y="300" width="78" height="78" as="geometry"/>
                </mxCell>
                <mxCell id="36" style="edgeStyle=none;html=1;entryX=0;entryY=0.5;entryDx=0;entryDy=0;entryPerimeter=0;" parent="1" source="34" target="32" edge="1">
                    <mxGeometry relative="1" as="geometry"/>
                </mxCell>
                <mxCell id="34" value="&lt;div&gt;VPC&lt;/div&gt;&lt;div&gt;End Point&lt;br&gt;&lt;/div&gt;" style="sketch=0;outlineConnect=0;fontColor=#232F3E;gradientColor=none;fillColor=#4D27AA;strokeColor=none;dashed=0;verticalLabelPosition=bottom;verticalAlign=top;align=center;html=1;fontSize=12;fontStyle=0;aspect=fixed;pointerEvents=1;shape=mxgraph.aws4.endpoints;" parent="1" vertex="1">
                    <mxGeometry x="730" y="300" width="78" height="78" as="geometry"/>
                </mxCell>
                <mxCell id="35" style="edgeStyle=none;html=1;" parent="1" source="10" target="34" edge="1">
                    <mxGeometry relative="1" as="geometry"/>
                </mxCell>
                <mxCell id="41" style="edgeStyle=none;html=1;entryX=0;entryY=0.5;entryDx=0;entryDy=0;entryPerimeter=0;" parent="1" source="37" target="39" edge="1">
                    <mxGeometry relative="1" as="geometry"/>
                </mxCell>
                <mxCell id="37" value="S3 Gateway" style="sketch=0;outlineConnect=0;fontColor=#232F3E;gradientColor=none;fillColor=#4D27AA;strokeColor=none;dashed=0;verticalLabelPosition=bottom;verticalAlign=top;align=center;html=1;fontSize=12;fontStyle=0;aspect=fixed;pointerEvents=1;shape=mxgraph.aws4.endpoints;" parent="1" vertex="1">
                    <mxGeometry x="730" y="440" width="78" height="78" as="geometry"/>
                </mxCell>
                <mxCell id="39" value="&lt;div&gt;S3&lt;/div&gt;&lt;div&gt;(Container Images)&lt;br&gt;&lt;/div&gt;" style="sketch=0;points=[[0,0,0],[0.25,0,0],[0.5,0,0],[0.75,0,0],[1,0,0],[0,1,0],[0.25,1,0],[0.5,1,0],[0.75,1,0],[1,1,0],[0,0.25,0],[0,0.5,0],[0,0.75,0],[1,0.25,0],[1,0.5,0],[1,0.75,0]];outlineConnect=0;fontColor=#232F3E;gradientColor=#60A337;gradientDirection=north;fillColor=#277116;strokeColor=#ffffff;dashed=0;verticalLabelPosition=bottom;verticalAlign=top;align=center;html=1;fontSize=12;fontStyle=0;aspect=fixed;shape=mxgraph.aws4.resourceIcon;resIcon=mxgraph.aws4.s3;" parent="1" vertex="1">
                    <mxGeometry x="880" y="440" width="78" height="78" as="geometry"/>
                </mxCell>
                <mxCell id="40" style="edgeStyle=none;html=1;" parent="1" source="10" target="37" edge="1">
                    <mxGeometry relative="1" as="geometry">
                        <Array as="points">
                            <mxPoint x="610" y="479"/>
                        </Array>
                    </mxGeometry>
                </mxCell>
                <mxCell id="42" value="&lt;div&gt;S3&lt;/div&gt;&lt;div&gt;(CloudFormation Artifacts)&lt;br&gt;&lt;/div&gt;" style="sketch=0;points=[[0,0,0],[0.25,0,0],[0.5,0,0],[0.75,0,0],[1,0,0],[0,1,0],[0.25,1,0],[0.5,1,0],[0.75,1,0],[1,1,0],[0,0.25,0],[0,0.5,0],[0,0.75,0],[1,0.25,0],[1,0.5,0],[1,0.75,0]];outlineConnect=0;fontColor=#232F3E;gradientColor=#60A337;gradientDirection=north;fillColor=#277116;strokeColor=#ffffff;dashed=0;verticalLabelPosition=bottom;verticalAlign=top;align=center;html=1;fontSize=12;fontStyle=0;aspect=fixed;shape=mxgraph.aws4.resourceIcon;resIcon=mxgraph.aws4.s3;" vertex="1" parent="1">
                    <mxGeometry x="200" y="640" width="78" height="78" as="geometry"/>
                </mxCell>
                <mxCell id="45" style="edgeStyle=none;html=1;entryX=0;entryY=0.5;entryDx=0;entryDy=0;entryPerimeter=0;" edge="1" parent="1" source="44" target="42">
                    <mxGeometry relative="1" as="geometry"/>
                </mxCell>
                <mxCell id="44" value="CloudFormation" style="sketch=0;points=[[0,0,0],[0.25,0,0],[0.5,0,0],[0.75,0,0],[1,0,0],[0,1,0],[0.25,1,0],[0.5,1,0],[0.75,1,0],[1,1,0],[0,0.25,0],[0,0.5,0],[0,0.75,0],[1,0.25,0],[1,0.5,0],[1,0.75,0]];points=[[0,0,0],[0.25,0,0],[0.5,0,0],[0.75,0,0],[1,0,0],[0,1,0],[0.25,1,0],[0.5,1,0],[0.75,1,0],[1,1,0],[0,0.25,0],[0,0.5,0],[0,0.75,0],[1,0.25,0],[1,0.5,0],[1,0.75,0]];outlineConnect=0;fontColor=#232F3E;gradientColor=#F34482;gradientDirection=north;fillColor=#BC1356;strokeColor=#ffffff;dashed=0;verticalLabelPosition=bottom;verticalAlign=top;align=center;html=1;fontSize=12;fontStyle=0;aspect=fixed;shape=mxgraph.aws4.resourceIcon;resIcon=mxgraph.aws4.cloudformation;" vertex="1" parent="1">
                    <mxGeometry x="41" y="640" width="78" height="78" as="geometry"/>
                </mxCell>
                <mxCell id="46" style="edgeStyle=none;html=1;entryX=0;entryY=0.5;entryDx=0;entryDy=0;entryPerimeter=0;exitX=0;exitY=0.75;exitDx=0;exitDy=0;exitPerimeter=0;dashed=1;" edge="1" parent="1" source="17" target="44">
                    <mxGeometry relative="1" as="geometry">
                        <Array as="points">
                            <mxPoint x="-20" y="499"/>
                            <mxPoint x="-20" y="679"/>
                        </Array>
                    </mxGeometry>
                </mxCell>
                <mxCell id="48" value="Used to Provision EKS and related services" style="text;html=1;strokeColor=none;fillColor=none;align=center;verticalAlign=middle;whiteSpace=wrap;rounded=0;" vertex="1" parent="1">
                    <mxGeometry x="-220" y="675" width="130" height="30" as="geometry"/>
                </mxCell>
                <mxCell id="51" style="edgeStyle=none;html=1;entryX=1;entryY=0.5;entryDx=0;entryDy=0;entryPerimeter=0;" edge="1" parent="1" source="49" target="50">
                    <mxGeometry relative="1" as="geometry">
                        <Array as="points">
                            <mxPoint x="640" y="839"/>
                        </Array>
                    </mxGeometry>
                </mxCell>
                <mxCell id="53" style="edgeStyle=none;html=1;entryX=1;entryY=0.5;entryDx=0;entryDy=0;entryPerimeter=0;" edge="1" parent="1" source="49" target="29">
                    <mxGeometry relative="1" as="geometry">
                        <Array as="points">
                            <mxPoint x="480" y="920"/>
                            <mxPoint x="200" y="839"/>
                        </Array>
                    </mxGeometry>
                </mxCell>
                <mxCell id="49" value="SNS" style="sketch=0;points=[[0,0,0],[0.25,0,0],[0.5,0,0],[0.75,0,0],[1,0,0],[0,1,0],[0.25,1,0],[0.5,1,0],[0.75,1,0],[1,1,0],[0,0.25,0],[0,0.5,0],[0,0.75,0],[1,0.25,0],[1,0.5,0],[1,0.75,0]];outlineConnect=0;fontColor=#232F3E;gradientColor=#FF4F8B;gradientDirection=north;fillColor=#BC1356;strokeColor=#ffffff;dashed=0;verticalLabelPosition=bottom;verticalAlign=top;align=center;html=1;fontSize=12;fontStyle=0;aspect=fixed;shape=mxgraph.aws4.resourceIcon;resIcon=mxgraph.aws4.sns;" vertex="1" parent="1">
                    <mxGeometry x="680" y="880" width="78" height="78" as="geometry"/>
                </mxCell>
                <mxCell id="52" style="edgeStyle=none;html=1;entryX=1;entryY=0.25;entryDx=0;entryDy=0;entryPerimeter=0;exitX=0;exitY=0.25;exitDx=0;exitDy=0;exitPerimeter=0;" edge="1" parent="1" source="50" target="29">
                    <mxGeometry relative="1" as="geometry"/>
                </mxCell>
                <mxCell id="50" value="SQS" style="sketch=0;points=[[0,0,0],[0.25,0,0],[0.5,0,0],[0.75,0,0],[1,0,0],[0,1,0],[0.25,1,0],[0.5,1,0],[0.75,1,0],[1,1,0],[0,0.25,0],[0,0.5,0],[0,0.75,0],[1,0.25,0],[1,0.5,0],[1,0.75,0]];outlineConnect=0;fontColor=#232F3E;gradientColor=#FF4F8B;gradientDirection=north;fillColor=#BC1356;strokeColor=#ffffff;dashed=0;verticalLabelPosition=bottom;verticalAlign=top;align=center;html=1;fontSize=12;fontStyle=0;aspect=fixed;shape=mxgraph.aws4.resourceIcon;resIcon=mxgraph.aws4.sqs;" vertex="1" parent="1">
                    <mxGeometry x="520" y="800" width="78" height="78" as="geometry"/>
                </mxCell>
                <mxCell id="SiT0QSAOZdZS1jsgkOj9-54" value="PublicProxy" style="sketch=0;points=[[0,0,0],[0.25,0,0],[0.5,0,0],[0.75,0,0],[1,0,0],[0,1,0],[0.25,1,0],[0.5,1,0],[0.75,1,0],[1,1,0],[0,0.25,0],[0,0.5,0],[0,0.75,0],[1,0.25,0],[1,0.5,0],[1,0.75,0]];outlineConnect=0;fontColor=#232F3E;gradientColor=#945DF2;gradientDirection=north;fillColor=#5A30B5;strokeColor=#ffffff;dashed=0;verticalLabelPosition=bottom;verticalAlign=top;align=center;html=1;fontSize=12;fontStyle=0;aspect=fixed;shape=mxgraph.aws4.resourceIcon;resIcon=mxgraph.aws4.route_53;" vertex="1" parent="1">
                    <mxGeometry x="-40" y="-78" width="78" height="78" as="geometry"/>
                </mxCell>
                <mxCell id="SiT0QSAOZdZS1jsgkOj9-56" value="Private Proxy" style="sketch=0;points=[[0,0,0],[0.25,0,0],[0.5,0,0],[0.75,0,0],[1,0,0],[0,1,0],[0.25,1,0],[0.5,1,0],[0.75,1,0],[1,1,0],[0,0.25,0],[0,0.5,0],[0,0.75,0],[1,0.25,0],[1,0.5,0],[1,0.75,0]];outlineConnect=0;fontColor=#232F3E;gradientColor=#945DF2;gradientDirection=north;fillColor=#5A30B5;strokeColor=#ffffff;dashed=0;verticalLabelPosition=bottom;verticalAlign=top;align=center;html=1;fontSize=12;fontStyle=0;aspect=fixed;shape=mxgraph.aws4.resourceIcon;resIcon=mxgraph.aws4.route_53;" vertex="1" parent="1">
                    <mxGeometry x="80" y="-78" width="78" height="78" as="geometry"/>
                </mxCell>
            </root>
        </mxGraphModel>
    </diagram>
    <diagram id="NClhZh8iLGfi0EfKB1Yt" name="EKS Components">
        <mxGraphModel dx="2062" dy="1229" grid="1" gridSize="10" guides="1" tooltips="1" connect="1" arrows="1" fold="1" page="1" pageScale="1" pageWidth="850" pageHeight="1100" math="0" shadow="0">
            <root>
                <mxCell id="GFoCWtuotjD4sGx1J90k-0"/>
                <mxCell id="GFoCWtuotjD4sGx1J90k-1" parent="GFoCWtuotjD4sGx1J90k-0"/>
                <mxCell id="F5e7fQ9ra3P3XtKdDSP4-0" value="" style="rounded=1;whiteSpace=wrap;html=1;strokeColor=none;" vertex="1" parent="GFoCWtuotjD4sGx1J90k-1">
                    <mxGeometry x="40" y="40" width="560" height="760" as="geometry"/>
                </mxCell>
                <mxCell id="BORFXKp_mWNrE0BTdBku-0" value="EKS" style="fillColor=none;strokeColor=#5A6C86;dashed=1;verticalAlign=top;fontStyle=0;fontColor=#5A6C86;" parent="GFoCWtuotjD4sGx1J90k-1" vertex="1">
                    <mxGeometry x="120" y="120" width="400" height="600" as="geometry"/>
                </mxCell>
                <mxCell id="BORFXKp_mWNrE0BTdBku-1" value="&lt;div&gt;AWS LoadBalancer&lt;/div&gt;&lt;div&gt;Controller&lt;br&gt;&lt;/div&gt;" style="sketch=0;outlineConnect=0;fontColor=#232F3E;gradientColor=none;fillColor=#232F3D;strokeColor=none;dashed=0;verticalLabelPosition=bottom;verticalAlign=top;align=center;html=1;fontSize=12;fontStyle=0;aspect=fixed;pointerEvents=1;shape=mxgraph.aws4.external_sdk;" parent="GFoCWtuotjD4sGx1J90k-1" vertex="1">
                    <mxGeometry x="170" y="240" width="68" height="78" as="geometry"/>
                </mxCell>
                <mxCell id="BORFXKp_mWNrE0BTdBku-2" value="" style="sketch=0;points=[[0,0,0],[0.25,0,0],[0.5,0,0],[0.75,0,0],[1,0,0],[0,1,0],[0.25,1,0],[0.5,1,0],[0.75,1,0],[1,1,0],[0,0.25,0],[0,0.5,0],[0,0.75,0],[1,0.25,0],[1,0.5,0],[1,0.75,0]];outlineConnect=0;fontColor=#232F3E;gradientColor=#F78E04;gradientDirection=north;fillColor=#D05C17;strokeColor=#ffffff;dashed=0;verticalLabelPosition=bottom;verticalAlign=top;align=center;html=1;fontSize=12;fontStyle=0;aspect=fixed;shape=mxgraph.aws4.resourceIcon;resIcon=mxgraph.aws4.eks;" parent="GFoCWtuotjD4sGx1J90k-1" vertex="1">
                    <mxGeometry x="120" y="120" width="78" height="78" as="geometry"/>
                </mxCell>
                <mxCell id="BORFXKp_mWNrE0BTdBku-3" value="ArgoCD" style="sketch=0;outlineConnect=0;fontColor=#232F3E;gradientColor=none;fillColor=#232F3D;strokeColor=none;dashed=0;verticalLabelPosition=bottom;verticalAlign=top;align=center;html=1;fontSize=12;fontStyle=0;aspect=fixed;pointerEvents=1;shape=mxgraph.aws4.external_sdk;" parent="GFoCWtuotjD4sGx1J90k-1" vertex="1">
                    <mxGeometry x="170" y="400" width="68" height="78" as="geometry"/>
                </mxCell>
                <mxCell id="BORFXKp_mWNrE0BTdBku-4" value="&lt;div&gt;AWS Autoscaler&lt;/div&gt;&lt;div&gt;Controller&lt;br&gt;&lt;/div&gt;" style="sketch=0;outlineConnect=0;fontColor=#232F3E;gradientColor=none;fillColor=#232F3D;strokeColor=none;dashed=0;verticalLabelPosition=bottom;verticalAlign=top;align=center;html=1;fontSize=12;fontStyle=0;aspect=fixed;pointerEvents=1;shape=mxgraph.aws4.external_sdk;" parent="GFoCWtuotjD4sGx1J90k-1" vertex="1">
                    <mxGeometry x="170" y="560" width="68" height="78" as="geometry"/>
                </mxCell>
                <mxCell id="BORFXKp_mWNrE0BTdBku-5" value="&lt;div&gt;Kubernetes&lt;/div&gt;&lt;div&gt;Dashboard&lt;br&gt;&lt;/div&gt;" style="sketch=0;outlineConnect=0;fontColor=#232F3E;gradientColor=none;fillColor=#232F3D;strokeColor=none;dashed=0;verticalLabelPosition=bottom;verticalAlign=top;align=center;html=1;fontSize=12;fontStyle=0;aspect=fixed;pointerEvents=1;shape=mxgraph.aws4.external_sdk;" parent="GFoCWtuotjD4sGx1J90k-1" vertex="1">
                    <mxGeometry x="370" y="240" width="68" height="78" as="geometry"/>
                </mxCell>
            </root>
        </mxGraphModel>
    </diagram>
    <diagram id="fG3BlRVKO8k9C_SjzpoF" name="AWS Components Progress">
        <mxGraphModel dx="2504" dy="2134" grid="1" gridSize="10" guides="1" tooltips="1" connect="1" arrows="1" fold="1" page="1" pageScale="1" pageWidth="850" pageHeight="1100" math="0" shadow="0">
            <root>
                <mxCell id="LqjgguTIqTyeok_0b6uu-0"/>
                <mxCell id="LqjgguTIqTyeok_0b6uu-1" parent="LqjgguTIqTyeok_0b6uu-0"/>
                <mxCell id="aiBb2gHxXjBJEJnZ1w2l-0" value="" style="rounded=0;whiteSpace=wrap;html=1;strokeColor=#000000;" vertex="1" parent="LqjgguTIqTyeok_0b6uu-1">
                    <mxGeometry x="-360" y="-120" width="1400" height="1240" as="geometry"/>
                </mxCell>
                <mxCell id="aiBb2gHxXjBJEJnZ1w2l-1" value="" style="rounded=1;whiteSpace=wrap;html=1;strokeColor=#000000;dashed=1;" vertex="1" parent="LqjgguTIqTyeok_0b6uu-1">
                    <mxGeometry x="-280" y="620" width="640" height="140" as="geometry"/>
                </mxCell>
                <mxCell id="aiBb2gHxXjBJEJnZ1w2l-2" value="Private VPC" style="points=[[0,0],[0.25,0],[0.5,0],[0.75,0],[1,0],[1,0.25],[1,0.5],[1,0.75],[1,1],[0.75,1],[0.5,1],[0.25,1],[0,1],[0,0.75],[0,0.5],[0,0.25]];outlineConnect=0;gradientColor=none;html=1;whiteSpace=wrap;fontSize=12;fontStyle=0;container=1;pointerEvents=0;collapsible=0;recursiveResize=0;shape=mxgraph.aws4.group;grIcon=mxgraph.aws4.group_vpc;strokeColor=#248814;fillColor=none;verticalAlign=top;align=left;spacingLeft=30;fontColor=#AAB7B8;dashed=0;" vertex="1" parent="LqjgguTIqTyeok_0b6uu-1">
                    <mxGeometry x="240" y="200" width="440" height="400" as="geometry"/>
                </mxCell>
                <mxCell id="aiBb2gHxXjBJEJnZ1w2l-3" value="Routable Subnet" style="points=[[0,0],[0.25,0],[0.5,0],[0.75,0],[1,0],[1,0.25],[1,0.5],[1,0.75],[1,1],[0.75,1],[0.5,1],[0.25,1],[0,1],[0,0.75],[0,0.5],[0,0.25]];outlineConnect=0;gradientColor=none;html=1;whiteSpace=wrap;fontSize=12;fontStyle=0;container=1;pointerEvents=0;collapsible=0;recursiveResize=0;shape=mxgraph.aws4.group;grIcon=mxgraph.aws4.group_security_group;grStroke=0;strokeColor=#147EBA;fillColor=#E6F2F8;verticalAlign=top;align=left;spacingLeft=30;fontColor=#147EBA;dashed=0;" vertex="1" parent="aiBb2gHxXjBJEJnZ1w2l-2">
                    <mxGeometry x="40" y="40" width="160" height="320" as="geometry"/>
                </mxCell>
                <mxCell id="aiBb2gHxXjBJEJnZ1w2l-4" value="&lt;div&gt;Private&lt;/div&gt;&lt;div&gt;Ingress ALB&lt;br&gt;&lt;/div&gt;" style="sketch=0;outlineConnect=0;fontColor=#232F3E;gradientColor=none;fillColor=#4D27AA;strokeColor=none;dashed=0;verticalLabelPosition=bottom;verticalAlign=top;align=center;html=1;fontSize=12;fontStyle=0;aspect=fixed;pointerEvents=1;shape=mxgraph.aws4.application_load_balancer;" vertex="1" parent="aiBb2gHxXjBJEJnZ1w2l-3">
                    <mxGeometry x="41" y="60" width="78" height="78" as="geometry"/>
                </mxCell>
                <mxCell id="aiBb2gHxXjBJEJnZ1w2l-5" value="&lt;div&gt;EKS Subnet&lt;/div&gt;" style="points=[[0,0],[0.25,0],[0.5,0],[0.75,0],[1,0],[1,0.25],[1,0.5],[1,0.75],[1,1],[0.75,1],[0.5,1],[0.25,1],[0,1],[0,0.75],[0,0.5],[0,0.25]];outlineConnect=0;gradientColor=none;html=1;whiteSpace=wrap;fontSize=12;fontStyle=0;container=1;pointerEvents=0;collapsible=0;recursiveResize=0;shape=mxgraph.aws4.group;grIcon=mxgraph.aws4.group_security_group;grStroke=0;strokeColor=#147EBA;fillColor=#E6F2F8;verticalAlign=top;align=left;spacingLeft=30;fontColor=#147EBA;dashed=0;" vertex="1" parent="aiBb2gHxXjBJEJnZ1w2l-2">
                    <mxGeometry x="240" y="40" width="160" height="320" as="geometry"/>
                </mxCell>
                <mxCell id="aiBb2gHxXjBJEJnZ1w2l-6" value="" style="sketch=0;points=[[0,0,0],[0.25,0,0],[0.5,0,0],[0.75,0,0],[1,0,0],[0,1,0],[0.25,1,0],[0.5,1,0],[0.75,1,0],[1,1,0],[0,0.25,0],[0,0.5,0],[0,0.75,0],[1,0.25,0],[1,0.5,0],[1,0.75,0]];outlineConnect=0;fontColor=#232F3E;gradientColor=#F78E04;gradientDirection=north;fillColor=#D05C17;strokeColor=#ffffff;dashed=0;verticalLabelPosition=bottom;verticalAlign=top;align=center;html=1;fontSize=12;fontStyle=0;aspect=fixed;shape=mxgraph.aws4.resourceIcon;resIcon=mxgraph.aws4.eks;" vertex="1" parent="aiBb2gHxXjBJEJnZ1w2l-5">
                    <mxGeometry x="41" y="60" width="78" height="78" as="geometry"/>
                </mxCell>
                <mxCell id="aiBb2gHxXjBJEJnZ1w2l-7" style="edgeStyle=none;html=1;entryX=0;entryY=0.5;entryDx=0;entryDy=0;entryPerimeter=0;" edge="1" parent="aiBb2gHxXjBJEJnZ1w2l-2" source="aiBb2gHxXjBJEJnZ1w2l-4" target="aiBb2gHxXjBJEJnZ1w2l-6">
                    <mxGeometry relative="1" as="geometry"/>
                </mxCell>
                <mxCell id="aiBb2gHxXjBJEJnZ1w2l-8" value="Public VPC" style="points=[[0,0],[0.25,0],[0.5,0],[0.75,0],[1,0],[1,0.25],[1,0.5],[1,0.75],[1,1],[0.75,1],[0.5,1],[0.25,1],[0,1],[0,0.75],[0,0.5],[0,0.25]];outlineConnect=0;gradientColor=none;html=1;whiteSpace=wrap;fontSize=12;fontStyle=0;container=1;pointerEvents=0;collapsible=0;recursiveResize=0;shape=mxgraph.aws4.group;grIcon=mxgraph.aws4.group_vpc;strokeColor=#248814;fillColor=none;verticalAlign=top;align=left;spacingLeft=30;fontColor=#AAB7B8;dashed=0;" vertex="1" parent="LqjgguTIqTyeok_0b6uu-1">
                    <mxGeometry x="-40" y="200" width="240" height="400" as="geometry"/>
                </mxCell>
                <mxCell id="aiBb2gHxXjBJEJnZ1w2l-9" value="Public subnet" style="points=[[0,0],[0.25,0],[0.5,0],[0.75,0],[1,0],[1,0.25],[1,0.5],[1,0.75],[1,1],[0.75,1],[0.5,1],[0.25,1],[0,1],[0,0.75],[0,0.5],[0,0.25]];outlineConnect=0;gradientColor=none;html=1;whiteSpace=wrap;fontSize=12;fontStyle=0;container=1;pointerEvents=0;collapsible=0;recursiveResize=0;shape=mxgraph.aws4.group;grIcon=mxgraph.aws4.group_security_group;grStroke=0;strokeColor=#248814;fillColor=#E9F3E6;verticalAlign=top;align=left;spacingLeft=30;fontColor=#248814;dashed=0;" vertex="1" parent="aiBb2gHxXjBJEJnZ1w2l-8">
                    <mxGeometry x="41" y="40" width="160" height="320" as="geometry"/>
                </mxCell>
                <mxCell id="aiBb2gHxXjBJEJnZ1w2l-10" value="&lt;div&gt;Proxy&lt;/div&gt;&lt;div&gt;(and Jump Host)&lt;br&gt;&lt;/div&gt;" style="sketch=0;points=[[0,0,0],[0.25,0,0],[0.5,0,0],[0.75,0,0],[1,0,0],[0,1,0],[0.25,1,0],[0.5,1,0],[0.75,1,0],[1,1,0],[0,0.25,0],[0,0.5,0],[0,0.75,0],[1,0.25,0],[1,0.5,0],[1,0.75,0]];outlineConnect=0;fontColor=#232F3E;gradientColor=#F78E04;gradientDirection=north;fillColor=#D05C17;strokeColor=#ffffff;dashed=0;verticalLabelPosition=bottom;verticalAlign=top;align=center;html=1;fontSize=12;fontStyle=0;aspect=fixed;shape=mxgraph.aws4.resourceIcon;resIcon=mxgraph.aws4.ec2;" vertex="1" parent="aiBb2gHxXjBJEJnZ1w2l-9">
                    <mxGeometry x="40" y="200" width="78" height="78" as="geometry"/>
                </mxCell>
                <mxCell id="aiBb2gHxXjBJEJnZ1w2l-11" value="&lt;div&gt;Public&lt;/div&gt;&lt;div&gt;Ingress ALB&lt;/div&gt;" style="sketch=0;outlineConnect=0;fontColor=#232F3E;gradientColor=none;fillColor=#4D27AA;strokeColor=none;dashed=0;verticalLabelPosition=bottom;verticalAlign=top;align=center;html=1;fontSize=12;fontStyle=0;aspect=fixed;pointerEvents=1;shape=mxgraph.aws4.application_load_balancer;" vertex="1" parent="aiBb2gHxXjBJEJnZ1w2l-9">
                    <mxGeometry x="41" y="60" width="78" height="78" as="geometry"/>
                </mxCell>
                <mxCell id="aiBb2gHxXjBJEJnZ1w2l-45" value="" style="sketch=0;html=1;aspect=fixed;shadow=0;align=center;verticalAlign=top;shape=mxgraph.gcp2.check;" vertex="1" parent="aiBb2gHxXjBJEJnZ1w2l-9">
                    <mxGeometry x="99" y="190" width="37.5" height="30" as="geometry"/>
                </mxCell>
                <mxCell id="aiBb2gHxXjBJEJnZ1w2l-12" style="edgeStyle=none;html=1;" edge="1" parent="LqjgguTIqTyeok_0b6uu-1" source="aiBb2gHxXjBJEJnZ1w2l-13" target="aiBb2gHxXjBJEJnZ1w2l-11">
                    <mxGeometry relative="1" as="geometry">
                        <mxPoint x="42" y="338.7054380664654" as="targetPoint"/>
                    </mxGeometry>
                </mxCell>
                <mxCell id="aiBb2gHxXjBJEJnZ1w2l-13" value="devices" style="sketch=0;outlineConnect=0;gradientColor=none;fontColor=#545B64;strokeColor=none;fillColor=#879196;dashed=0;verticalLabelPosition=bottom;verticalAlign=top;align=center;html=1;fontSize=12;fontStyle=0;aspect=fixed;shape=mxgraph.aws4.illustration_devices;pointerEvents=1" vertex="1" parent="LqjgguTIqTyeok_0b6uu-1">
                    <mxGeometry x="-300" y="305" width="100" height="73" as="geometry"/>
                </mxCell>
                <mxCell id="aiBb2gHxXjBJEJnZ1w2l-14" value="WWW" style="aspect=fixed;perimeter=ellipsePerimeter;html=1;align=center;shadow=0;dashed=0;spacingTop=3;image;image=img/lib/active_directory/internet_globe.svg;" vertex="1" parent="LqjgguTIqTyeok_0b6uu-1">
                    <mxGeometry x="-250" y="454" width="50" height="50" as="geometry"/>
                </mxCell>
                <mxCell id="aiBb2gHxXjBJEJnZ1w2l-15" style="edgeStyle=none;html=1;entryX=1;entryY=0.5;entryDx=0;entryDy=0;" edge="1" parent="LqjgguTIqTyeok_0b6uu-1" source="aiBb2gHxXjBJEJnZ1w2l-10" target="aiBb2gHxXjBJEJnZ1w2l-14">
                    <mxGeometry relative="1" as="geometry"/>
                </mxCell>
                <mxCell id="aiBb2gHxXjBJEJnZ1w2l-16" style="edgeStyle=none;html=1;entryX=1;entryY=0.5;entryDx=0;entryDy=0;entryPerimeter=0;" edge="1" parent="LqjgguTIqTyeok_0b6uu-1" source="aiBb2gHxXjBJEJnZ1w2l-6" target="aiBb2gHxXjBJEJnZ1w2l-10">
                    <mxGeometry relative="1" as="geometry">
                        <Array as="points">
                            <mxPoint x="560" y="479"/>
                        </Array>
                    </mxGeometry>
                </mxCell>
                <mxCell id="aiBb2gHxXjBJEJnZ1w2l-17" value="Public&lt;br&gt;&lt;div&gt;Ingress NLB&lt;/div&gt;&lt;div&gt;DNS Name&lt;br&gt;&lt;/div&gt;" style="sketch=0;points=[[0,0,0],[0.25,0,0],[0.5,0,0],[0.75,0,0],[1,0,0],[0,1,0],[0.25,1,0],[0.5,1,0],[0.75,1,0],[1,1,0],[0,0.25,0],[0,0.5,0],[0,0.75,0],[1,0.25,0],[1,0.5,0],[1,0.75,0]];outlineConnect=0;fontColor=#232F3E;gradientColor=#945DF2;gradientDirection=north;fillColor=#5A30B5;strokeColor=#ffffff;dashed=0;verticalLabelPosition=bottom;verticalAlign=top;align=center;html=1;fontSize=12;fontStyle=0;aspect=fixed;shape=mxgraph.aws4.resourceIcon;resIcon=mxgraph.aws4.route_53;" vertex="1" parent="LqjgguTIqTyeok_0b6uu-1">
                    <mxGeometry x="-40" y="40" width="78" height="78" as="geometry"/>
                </mxCell>
                <mxCell id="aiBb2gHxXjBJEJnZ1w2l-18" value="&lt;div&gt;Ingress NLB&lt;br&gt;&lt;/div&gt;&lt;div&gt;Certificate&lt;/div&gt;" style="sketch=0;points=[[0,0,0],[0.25,0,0],[0.5,0,0],[0.75,0,0],[1,0,0],[0,1,0],[0.25,1,0],[0.5,1,0],[0.75,1,0],[1,1,0],[0,0.25,0],[0,0.5,0],[0,0.75,0],[1,0.25,0],[1,0.5,0],[1,0.75,0]];outlineConnect=0;fontColor=#232F3E;gradientColor=#F54749;gradientDirection=north;fillColor=#C7131F;strokeColor=#ffffff;dashed=0;verticalLabelPosition=bottom;verticalAlign=top;align=center;html=1;fontSize=12;fontStyle=0;aspect=fixed;shape=mxgraph.aws4.resourceIcon;resIcon=mxgraph.aws4.certificate_manager_3;" vertex="1" parent="LqjgguTIqTyeok_0b6uu-1">
                    <mxGeometry x="80" y="40" width="78" height="78" as="geometry"/>
                </mxCell>
                <mxCell id="aiBb2gHxXjBJEJnZ1w2l-19" value="&lt;div&gt;Proxy&lt;/div&gt;&lt;div&gt;DNS Name&lt;br&gt;&lt;/div&gt;" style="sketch=0;points=[[0,0,0],[0.25,0,0],[0.5,0,0],[0.75,0,0],[1,0,0],[0,1,0],[0.25,1,0],[0.5,1,0],[0.75,1,0],[1,1,0],[0,0.25,0],[0,0.5,0],[0,0.75,0],[1,0.25,0],[1,0.5,0],[1,0.75,0]];outlineConnect=0;fontColor=#232F3E;gradientColor=#945DF2;gradientDirection=north;fillColor=#5A30B5;strokeColor=#ffffff;dashed=0;verticalLabelPosition=bottom;verticalAlign=top;align=center;html=1;fontSize=12;fontStyle=0;aspect=fixed;shape=mxgraph.aws4.resourceIcon;resIcon=mxgraph.aws4.route_53;" vertex="1" parent="LqjgguTIqTyeok_0b6uu-1">
                    <mxGeometry x="520" y="40" width="78" height="78" as="geometry"/>
                </mxCell>
                <mxCell id="aiBb2gHxXjBJEJnZ1w2l-20" style="edgeStyle=none;html=1;" edge="1" parent="LqjgguTIqTyeok_0b6uu-1" source="aiBb2gHxXjBJEJnZ1w2l-11" target="aiBb2gHxXjBJEJnZ1w2l-4">
                    <mxGeometry relative="1" as="geometry"/>
                </mxCell>
                <mxCell id="aiBb2gHxXjBJEJnZ1w2l-21" value="&lt;div&gt;Private Ingress&lt;/div&gt;&lt;div&gt;DNS Name&lt;br&gt;&lt;/div&gt;" style="sketch=0;points=[[0,0,0],[0.25,0,0],[0.5,0,0],[0.75,0,0],[1,0,0],[0,1,0],[0.25,1,0],[0.5,1,0],[0.75,1,0],[1,1,0],[0,0.25,0],[0,0.5,0],[0,0.75,0],[1,0.25,0],[1,0.5,0],[1,0.75,0]];outlineConnect=0;fontColor=#232F3E;gradientColor=#945DF2;gradientDirection=north;fillColor=#5A30B5;strokeColor=#ffffff;dashed=0;verticalLabelPosition=bottom;verticalAlign=top;align=center;html=1;fontSize=12;fontStyle=0;aspect=fixed;shape=mxgraph.aws4.resourceIcon;resIcon=mxgraph.aws4.route_53;" vertex="1" parent="LqjgguTIqTyeok_0b6uu-1">
                    <mxGeometry x="320" y="40" width="78" height="78" as="geometry"/>
                </mxCell>
                <mxCell id="aiBb2gHxXjBJEJnZ1w2l-22" value="&lt;div&gt;Various Supporting&lt;/div&gt;&lt;div&gt;Functions&lt;br&gt;&lt;/div&gt;" style="sketch=0;points=[[0,0,0],[0.25,0,0],[0.5,0,0],[0.75,0,0],[1,0,0],[0,1,0],[0.25,1,0],[0.5,1,0],[0.75,1,0],[1,1,0],[0,0.25,0],[0,0.5,0],[0,0.75,0],[1,0.25,0],[1,0.5,0],[1,0.75,0]];outlineConnect=0;fontColor=#232F3E;gradientColor=#F78E04;gradientDirection=north;fillColor=#D05C17;strokeColor=#ffffff;dashed=0;verticalLabelPosition=bottom;verticalAlign=top;align=center;html=1;fontSize=12;fontStyle=0;aspect=fixed;shape=mxgraph.aws4.resourceIcon;resIcon=mxgraph.aws4.lambda;" vertex="1" parent="LqjgguTIqTyeok_0b6uu-1">
                    <mxGeometry x="41" y="800" width="78" height="78" as="geometry"/>
                </mxCell>
                <mxCell id="aiBb2gHxXjBJEJnZ1w2l-23" style="edgeStyle=none;html=1;entryX=1;entryY=0.75;entryDx=0;entryDy=0;entryPerimeter=0;" edge="1" parent="LqjgguTIqTyeok_0b6uu-1" source="aiBb2gHxXjBJEJnZ1w2l-24" target="aiBb2gHxXjBJEJnZ1w2l-22">
                    <mxGeometry relative="1" as="geometry">
                        <Array as="points">
                            <mxPoint x="440" y="1000"/>
                            <mxPoint x="200" y="859"/>
                        </Array>
                    </mxGeometry>
                </mxCell>
                <mxCell id="aiBb2gHxXjBJEJnZ1w2l-24" value="&lt;div&gt;Event Bridge&lt;/div&gt;&lt;div&gt;(Used for triggering &lt;br&gt;&lt;/div&gt;&lt;div&gt;Lambda Functions)&lt;br&gt;&lt;/div&gt;" style="sketch=0;points=[[0,0,0],[0.25,0,0],[0.5,0,0],[0.75,0,0],[1,0,0],[0,1,0],[0.25,1,0],[0.5,1,0],[0.75,1,0],[1,1,0],[0,0.25,0],[0,0.5,0],[0,0.75,0],[1,0.25,0],[1,0.5,0],[1,0.75,0]];outlineConnect=0;fontColor=#232F3E;gradientColor=#FF4F8B;gradientDirection=north;fillColor=#BC1356;strokeColor=#ffffff;dashed=0;verticalLabelPosition=bottom;verticalAlign=top;align=center;html=1;fontSize=12;fontStyle=0;aspect=fixed;shape=mxgraph.aws4.resourceIcon;resIcon=mxgraph.aws4.eventbridge;" vertex="1" parent="LqjgguTIqTyeok_0b6uu-1">
                    <mxGeometry x="520" y="960" width="78" height="78" as="geometry"/>
                </mxCell>
                <mxCell id="aiBb2gHxXjBJEJnZ1w2l-25" value="&lt;div&gt;Alarm&lt;/div&gt;&lt;div&gt;Triggers&lt;br&gt;&lt;/div&gt;" style="edgeStyle=none;html=1;entryX=0.5;entryY=0;entryDx=0;entryDy=0;entryPerimeter=0;exitX=1;exitY=0.5;exitDx=0;exitDy=0;exitPerimeter=0;" edge="1" parent="LqjgguTIqTyeok_0b6uu-1" source="aiBb2gHxXjBJEJnZ1w2l-26" target="aiBb2gHxXjBJEJnZ1w2l-42">
                    <mxGeometry relative="1" as="geometry">
                        <Array as="points">
                            <mxPoint x="719" y="679"/>
                        </Array>
                    </mxGeometry>
                </mxCell>
                <mxCell id="aiBb2gHxXjBJEJnZ1w2l-26" value="&lt;div&gt;CloudWatch&lt;/div&gt;&lt;div&gt;(Logs etc)&lt;br&gt;&lt;/div&gt;" style="sketch=0;points=[[0,0,0],[0.25,0,0],[0.5,0,0],[0.75,0,0],[1,0,0],[0,1,0],[0.25,1,0],[0.5,1,0],[0.75,1,0],[1,1,0],[0,0.25,0],[0,0.5,0],[0,0.75,0],[1,0.25,0],[1,0.5,0],[1,0.75,0]];points=[[0,0,0],[0.25,0,0],[0.5,0,0],[0.75,0,0],[1,0,0],[0,1,0],[0.25,1,0],[0.5,1,0],[0.75,1,0],[1,1,0],[0,0.25,0],[0,0.5,0],[0,0.75,0],[1,0.25,0],[1,0.5,0],[1,0.75,0]];outlineConnect=0;fontColor=#232F3E;gradientColor=#F34482;gradientDirection=north;fillColor=#BC1356;strokeColor=#ffffff;dashed=0;verticalLabelPosition=bottom;verticalAlign=top;align=center;html=1;fontSize=12;fontStyle=0;aspect=fixed;shape=mxgraph.aws4.resourceIcon;resIcon=mxgraph.aws4.cloudwatch_2;" vertex="1" parent="LqjgguTIqTyeok_0b6uu-1">
                    <mxGeometry x="520" y="640" width="78" height="78" as="geometry"/>
                </mxCell>
                <mxCell id="aiBb2gHxXjBJEJnZ1w2l-27" value="&lt;div&gt;Container&lt;/div&gt;&lt;div&gt;Registry&lt;br&gt;&lt;/div&gt;" style="sketch=0;points=[[0,0,0],[0.25,0,0],[0.5,0,0],[0.75,0,0],[1,0,0],[0,1,0],[0.25,1,0],[0.5,1,0],[0.75,1,0],[1,1,0],[0,0.25,0],[0,0.5,0],[0,0.75,0],[1,0.25,0],[1,0.5,0],[1,0.75,0]];outlineConnect=0;fontColor=#232F3E;gradientColor=#F78E04;gradientDirection=north;fillColor=#D05C17;strokeColor=#ffffff;dashed=0;verticalLabelPosition=bottom;verticalAlign=top;align=center;html=1;fontSize=12;fontStyle=0;aspect=fixed;shape=mxgraph.aws4.resourceIcon;resIcon=mxgraph.aws4.ecr;" vertex="1" parent="LqjgguTIqTyeok_0b6uu-1">
                    <mxGeometry x="880" y="300" width="78" height="78" as="geometry"/>
                </mxCell>
                <mxCell id="aiBb2gHxXjBJEJnZ1w2l-28" style="edgeStyle=none;html=1;entryX=0;entryY=0.5;entryDx=0;entryDy=0;entryPerimeter=0;" edge="1" parent="LqjgguTIqTyeok_0b6uu-1" source="aiBb2gHxXjBJEJnZ1w2l-29" target="aiBb2gHxXjBJEJnZ1w2l-27">
                    <mxGeometry relative="1" as="geometry"/>
                </mxCell>
                <mxCell id="aiBb2gHxXjBJEJnZ1w2l-29" value="&lt;div&gt;VPC&lt;/div&gt;&lt;div&gt;End Point&lt;br&gt;&lt;/div&gt;" style="sketch=0;outlineConnect=0;fontColor=#232F3E;gradientColor=none;fillColor=#4D27AA;strokeColor=none;dashed=0;verticalLabelPosition=bottom;verticalAlign=top;align=center;html=1;fontSize=12;fontStyle=0;aspect=fixed;pointerEvents=1;shape=mxgraph.aws4.endpoints;" vertex="1" parent="LqjgguTIqTyeok_0b6uu-1">
                    <mxGeometry x="730" y="300" width="78" height="78" as="geometry"/>
                </mxCell>
                <mxCell id="aiBb2gHxXjBJEJnZ1w2l-30" style="edgeStyle=none;html=1;" edge="1" parent="LqjgguTIqTyeok_0b6uu-1" source="aiBb2gHxXjBJEJnZ1w2l-6" target="aiBb2gHxXjBJEJnZ1w2l-29">
                    <mxGeometry relative="1" as="geometry"/>
                </mxCell>
                <mxCell id="aiBb2gHxXjBJEJnZ1w2l-31" style="edgeStyle=none;html=1;entryX=0;entryY=0.5;entryDx=0;entryDy=0;entryPerimeter=0;" edge="1" parent="LqjgguTIqTyeok_0b6uu-1" source="aiBb2gHxXjBJEJnZ1w2l-32" target="aiBb2gHxXjBJEJnZ1w2l-33">
                    <mxGeometry relative="1" as="geometry"/>
                </mxCell>
                <mxCell id="aiBb2gHxXjBJEJnZ1w2l-32" value="S3 Gateway" style="sketch=0;outlineConnect=0;fontColor=#232F3E;gradientColor=none;fillColor=#4D27AA;strokeColor=none;dashed=0;verticalLabelPosition=bottom;verticalAlign=top;align=center;html=1;fontSize=12;fontStyle=0;aspect=fixed;pointerEvents=1;shape=mxgraph.aws4.endpoints;" vertex="1" parent="LqjgguTIqTyeok_0b6uu-1">
                    <mxGeometry x="730" y="440" width="78" height="78" as="geometry"/>
                </mxCell>
                <mxCell id="aiBb2gHxXjBJEJnZ1w2l-33" value="&lt;div&gt;S3&lt;/div&gt;&lt;div&gt;(Container Images)&lt;br&gt;&lt;/div&gt;" style="sketch=0;points=[[0,0,0],[0.25,0,0],[0.5,0,0],[0.75,0,0],[1,0,0],[0,1,0],[0.25,1,0],[0.5,1,0],[0.75,1,0],[1,1,0],[0,0.25,0],[0,0.5,0],[0,0.75,0],[1,0.25,0],[1,0.5,0],[1,0.75,0]];outlineConnect=0;fontColor=#232F3E;gradientColor=#60A337;gradientDirection=north;fillColor=#277116;strokeColor=#ffffff;dashed=0;verticalLabelPosition=bottom;verticalAlign=top;align=center;html=1;fontSize=12;fontStyle=0;aspect=fixed;shape=mxgraph.aws4.resourceIcon;resIcon=mxgraph.aws4.s3;" vertex="1" parent="LqjgguTIqTyeok_0b6uu-1">
                    <mxGeometry x="880" y="440" width="78" height="78" as="geometry"/>
                </mxCell>
                <mxCell id="aiBb2gHxXjBJEJnZ1w2l-34" style="edgeStyle=none;html=1;" edge="1" parent="LqjgguTIqTyeok_0b6uu-1" source="aiBb2gHxXjBJEJnZ1w2l-6" target="aiBb2gHxXjBJEJnZ1w2l-32">
                    <mxGeometry relative="1" as="geometry">
                        <Array as="points">
                            <mxPoint x="610" y="479"/>
                        </Array>
                    </mxGeometry>
                </mxCell>
                <mxCell id="aiBb2gHxXjBJEJnZ1w2l-35" value="&lt;div&gt;S3&lt;/div&gt;&lt;div&gt;(CloudFormation Artifacts)&lt;br&gt;&lt;/div&gt;" style="sketch=0;points=[[0,0,0],[0.25,0,0],[0.5,0,0],[0.75,0,0],[1,0,0],[0,1,0],[0.25,1,0],[0.5,1,0],[0.75,1,0],[1,1,0],[0,0.25,0],[0,0.5,0],[0,0.75,0],[1,0.25,0],[1,0.5,0],[1,0.75,0]];outlineConnect=0;fontColor=#232F3E;gradientColor=#60A337;gradientDirection=north;fillColor=#277116;strokeColor=#ffffff;dashed=0;verticalLabelPosition=bottom;verticalAlign=top;align=center;html=1;fontSize=12;fontStyle=0;aspect=fixed;shape=mxgraph.aws4.resourceIcon;resIcon=mxgraph.aws4.s3;" vertex="1" parent="LqjgguTIqTyeok_0b6uu-1">
                    <mxGeometry x="200" y="640" width="78" height="78" as="geometry"/>
                </mxCell>
                <mxCell id="aiBb2gHxXjBJEJnZ1w2l-36" style="edgeStyle=none;html=1;entryX=0;entryY=0.5;entryDx=0;entryDy=0;entryPerimeter=0;" edge="1" parent="LqjgguTIqTyeok_0b6uu-1" source="aiBb2gHxXjBJEJnZ1w2l-37" target="aiBb2gHxXjBJEJnZ1w2l-35">
                    <mxGeometry relative="1" as="geometry"/>
                </mxCell>
                <mxCell id="aiBb2gHxXjBJEJnZ1w2l-37" value="CloudFormation" style="sketch=0;points=[[0,0,0],[0.25,0,0],[0.5,0,0],[0.75,0,0],[1,0,0],[0,1,0],[0.25,1,0],[0.5,1,0],[0.75,1,0],[1,1,0],[0,0.25,0],[0,0.5,0],[0,0.75,0],[1,0.25,0],[1,0.5,0],[1,0.75,0]];points=[[0,0,0],[0.25,0,0],[0.5,0,0],[0.75,0,0],[1,0,0],[0,1,0],[0.25,1,0],[0.5,1,0],[0.75,1,0],[1,1,0],[0,0.25,0],[0,0.5,0],[0,0.75,0],[1,0.25,0],[1,0.5,0],[1,0.75,0]];outlineConnect=0;fontColor=#232F3E;gradientColor=#F34482;gradientDirection=north;fillColor=#BC1356;strokeColor=#ffffff;dashed=0;verticalLabelPosition=bottom;verticalAlign=top;align=center;html=1;fontSize=12;fontStyle=0;aspect=fixed;shape=mxgraph.aws4.resourceIcon;resIcon=mxgraph.aws4.cloudformation;" vertex="1" parent="LqjgguTIqTyeok_0b6uu-1">
                    <mxGeometry x="41" y="640" width="78" height="78" as="geometry"/>
                </mxCell>
                <mxCell id="aiBb2gHxXjBJEJnZ1w2l-38" style="edgeStyle=none;html=1;entryX=0;entryY=0.5;entryDx=0;entryDy=0;entryPerimeter=0;exitX=0;exitY=0.75;exitDx=0;exitDy=0;exitPerimeter=0;dashed=1;" edge="1" parent="LqjgguTIqTyeok_0b6uu-1" source="aiBb2gHxXjBJEJnZ1w2l-10" target="aiBb2gHxXjBJEJnZ1w2l-37">
                    <mxGeometry relative="1" as="geometry">
                        <Array as="points">
                            <mxPoint x="-20" y="499"/>
                            <mxPoint x="-20" y="679"/>
                        </Array>
                    </mxGeometry>
                </mxCell>
                <mxCell id="aiBb2gHxXjBJEJnZ1w2l-39" value="Used to Provision EKS and related services" style="text;html=1;strokeColor=none;fillColor=none;align=center;verticalAlign=middle;whiteSpace=wrap;rounded=0;" vertex="1" parent="LqjgguTIqTyeok_0b6uu-1">
                    <mxGeometry x="-220" y="675" width="130" height="30" as="geometry"/>
                </mxCell>
                <mxCell id="aiBb2gHxXjBJEJnZ1w2l-40" style="edgeStyle=none;html=1;entryX=1;entryY=0.5;entryDx=0;entryDy=0;entryPerimeter=0;" edge="1" parent="LqjgguTIqTyeok_0b6uu-1" source="aiBb2gHxXjBJEJnZ1w2l-42" target="aiBb2gHxXjBJEJnZ1w2l-44">
                    <mxGeometry relative="1" as="geometry">
                        <Array as="points">
                            <mxPoint x="640" y="839"/>
                        </Array>
                    </mxGeometry>
                </mxCell>
                <mxCell id="aiBb2gHxXjBJEJnZ1w2l-41" style="edgeStyle=none;html=1;entryX=1;entryY=0.5;entryDx=0;entryDy=0;entryPerimeter=0;" edge="1" parent="LqjgguTIqTyeok_0b6uu-1" source="aiBb2gHxXjBJEJnZ1w2l-42" target="aiBb2gHxXjBJEJnZ1w2l-22">
                    <mxGeometry relative="1" as="geometry">
                        <Array as="points">
                            <mxPoint x="480" y="920"/>
                            <mxPoint x="200" y="839"/>
                        </Array>
                    </mxGeometry>
                </mxCell>
                <mxCell id="aiBb2gHxXjBJEJnZ1w2l-42" value="SNS" style="sketch=0;points=[[0,0,0],[0.25,0,0],[0.5,0,0],[0.75,0,0],[1,0,0],[0,1,0],[0.25,1,0],[0.5,1,0],[0.75,1,0],[1,1,0],[0,0.25,0],[0,0.5,0],[0,0.75,0],[1,0.25,0],[1,0.5,0],[1,0.75,0]];outlineConnect=0;fontColor=#232F3E;gradientColor=#FF4F8B;gradientDirection=north;fillColor=#BC1356;strokeColor=#ffffff;dashed=0;verticalLabelPosition=bottom;verticalAlign=top;align=center;html=1;fontSize=12;fontStyle=0;aspect=fixed;shape=mxgraph.aws4.resourceIcon;resIcon=mxgraph.aws4.sns;" vertex="1" parent="LqjgguTIqTyeok_0b6uu-1">
                    <mxGeometry x="680" y="880" width="78" height="78" as="geometry"/>
                </mxCell>
                <mxCell id="aiBb2gHxXjBJEJnZ1w2l-43" style="edgeStyle=none;html=1;entryX=1;entryY=0.25;entryDx=0;entryDy=0;entryPerimeter=0;exitX=0;exitY=0.25;exitDx=0;exitDy=0;exitPerimeter=0;" edge="1" parent="LqjgguTIqTyeok_0b6uu-1" source="aiBb2gHxXjBJEJnZ1w2l-44" target="aiBb2gHxXjBJEJnZ1w2l-22">
                    <mxGeometry relative="1" as="geometry"/>
                </mxCell>
                <mxCell id="aiBb2gHxXjBJEJnZ1w2l-44" value="SQS" style="sketch=0;points=[[0,0,0],[0.25,0,0],[0.5,0,0],[0.75,0,0],[1,0,0],[0,1,0],[0.25,1,0],[0.5,1,0],[0.75,1,0],[1,1,0],[0,0.25,0],[0,0.5,0],[0,0.75,0],[1,0.25,0],[1,0.5,0],[1,0.75,0]];outlineConnect=0;fontColor=#232F3E;gradientColor=#FF4F8B;gradientDirection=north;fillColor=#BC1356;strokeColor=#ffffff;dashed=0;verticalLabelPosition=bottom;verticalAlign=top;align=center;html=1;fontSize=12;fontStyle=0;aspect=fixed;shape=mxgraph.aws4.resourceIcon;resIcon=mxgraph.aws4.sqs;" vertex="1" parent="LqjgguTIqTyeok_0b6uu-1">
                    <mxGeometry x="520" y="800" width="78" height="78" as="geometry"/>
                </mxCell>
                <mxCell id="aiBb2gHxXjBJEJnZ1w2l-46" value="" style="sketch=0;html=1;aspect=fixed;shadow=0;align=center;verticalAlign=top;shape=mxgraph.gcp2.check;" vertex="1" parent="LqjgguTIqTyeok_0b6uu-1">
                    <mxGeometry x="808" width="37.5" height="30" as="geometry"/>
                </mxCell>
                <mxCell id="aiBb2gHxXjBJEJnZ1w2l-47" value="In Progress" style="text;html=1;strokeColor=none;fillColor=none;align=left;verticalAlign=middle;whiteSpace=wrap;rounded=0;" vertex="1" parent="LqjgguTIqTyeok_0b6uu-1">
                    <mxGeometry x="860" width="84.5" height="30" as="geometry"/>
                </mxCell>
                <mxCell id="aiBb2gHxXjBJEJnZ1w2l-48" value="" style="sketch=0;html=1;aspect=fixed;shadow=0;align=center;verticalAlign=top;shape=mxgraph.gcp2.check;fillColor=#d5e8d4;strokeColor=#82b366;" vertex="1" parent="LqjgguTIqTyeok_0b6uu-1">
                    <mxGeometry x="808" y="50" width="37.5" height="30" as="geometry"/>
                </mxCell>
                <mxCell id="aiBb2gHxXjBJEJnZ1w2l-49" value="Implemented" style="text;html=1;strokeColor=none;fillColor=none;align=left;verticalAlign=middle;whiteSpace=wrap;rounded=0;" vertex="1" parent="LqjgguTIqTyeok_0b6uu-1">
                    <mxGeometry x="860" y="50" width="84.5" height="30" as="geometry"/>
                </mxCell>
                <mxCell id="aiBb2gHxXjBJEJnZ1w2l-50" value="" style="sketch=0;html=1;aspect=fixed;shadow=0;align=center;verticalAlign=top;shape=mxgraph.gcp2.check;fillColor=#fff2cc;strokeColor=#d6b656;" vertex="1" parent="LqjgguTIqTyeok_0b6uu-1">
                    <mxGeometry x="808" y="110" width="37.5" height="30" as="geometry"/>
                </mxCell>
                <mxCell id="aiBb2gHxXjBJEJnZ1w2l-51" value="Partially Implemented" style="text;html=1;strokeColor=none;fillColor=none;align=left;verticalAlign=middle;whiteSpace=wrap;rounded=0;" vertex="1" parent="LqjgguTIqTyeok_0b6uu-1">
                    <mxGeometry x="860" y="110" width="120" height="30" as="geometry"/>
                </mxCell>
                <mxCell id="aiBb2gHxXjBJEJnZ1w2l-52" value="" style="sketch=0;html=1;aspect=fixed;shadow=0;align=center;verticalAlign=top;shape=mxgraph.gcp2.check;fillColor=#0050ef;fontColor=#ffffff;strokeColor=#001DBC;" vertex="1" parent="LqjgguTIqTyeok_0b6uu-1">
                    <mxGeometry x="808" y="170" width="37.5" height="30" as="geometry"/>
                </mxCell>
                <mxCell id="aiBb2gHxXjBJEJnZ1w2l-53" value="Pre-Existing" style="text;html=1;strokeColor=none;fillColor=none;align=left;verticalAlign=middle;whiteSpace=wrap;rounded=0;" vertex="1" parent="LqjgguTIqTyeok_0b6uu-1">
                    <mxGeometry x="860" y="170" width="120" height="30" as="geometry"/>
                </mxCell>
                <mxCell id="aiBb2gHxXjBJEJnZ1w2l-57" value="PublicProxy" style="sketch=0;points=[[0,0,0],[0.25,0,0],[0.5,0,0],[0.75,0,0],[1,0,0],[0,1,0],[0.25,1,0],[0.5,1,0],[0.75,1,0],[1,1,0],[0,0.25,0],[0,0.5,0],[0,0.75,0],[1,0.25,0],[1,0.5,0],[1,0.75,0]];outlineConnect=0;fontColor=#232F3E;gradientColor=#945DF2;gradientDirection=north;fillColor=#5A30B5;strokeColor=#ffffff;dashed=0;verticalLabelPosition=bottom;verticalAlign=top;align=center;html=1;fontSize=12;fontStyle=0;aspect=fixed;shape=mxgraph.aws4.resourceIcon;resIcon=mxgraph.aws4.route_53;" vertex="1" parent="LqjgguTIqTyeok_0b6uu-1">
                    <mxGeometry x="-40" y="-78" width="78" height="78" as="geometry"/>
                </mxCell>
                <mxCell id="aiBb2gHxXjBJEJnZ1w2l-56" value="" style="sketch=0;html=1;aspect=fixed;shadow=0;align=center;verticalAlign=top;shape=mxgraph.gcp2.check;" vertex="1" parent="LqjgguTIqTyeok_0b6uu-1">
                    <mxGeometry x="20" y="-90" width="37.5" height="30" as="geometry"/>
                </mxCell>
                <mxCell id="aiBb2gHxXjBJEJnZ1w2l-58" value="Private Proxy" style="sketch=0;points=[[0,0,0],[0.25,0,0],[0.5,0,0],[0.75,0,0],[1,0,0],[0,1,0],[0.25,1,0],[0.5,1,0],[0.75,1,0],[1,1,0],[0,0.25,0],[0,0.5,0],[0,0.75,0],[1,0.25,0],[1,0.5,0],[1,0.75,0]];outlineConnect=0;fontColor=#232F3E;gradientColor=#945DF2;gradientDirection=north;fillColor=#5A30B5;strokeColor=#ffffff;dashed=0;verticalLabelPosition=bottom;verticalAlign=top;align=center;html=1;fontSize=12;fontStyle=0;aspect=fixed;shape=mxgraph.aws4.resourceIcon;resIcon=mxgraph.aws4.route_53;" vertex="1" parent="LqjgguTIqTyeok_0b6uu-1">
                    <mxGeometry x="80" y="-78" width="78" height="78" as="geometry"/>
                </mxCell>
                <mxCell id="aiBb2gHxXjBJEJnZ1w2l-59" value="" style="sketch=0;html=1;aspect=fixed;shadow=0;align=center;verticalAlign=top;shape=mxgraph.gcp2.check;" vertex="1" parent="LqjgguTIqTyeok_0b6uu-1">
                    <mxGeometry x="140" y="-90" width="37.5" height="30" as="geometry"/>
                </mxCell>
            </root>
        </mxGraphModel>
    </diagram>
</mxfile>